<?xml version="1.0" standalone="no"?>
<!DOCTYPE svg PUBLIC "-//W3C//DTD SVG 20010904//EN"
 "http://www.w3.org/TR/2001/REC-SVG-20010904/DTD/svg10.dtd">
<svg version="1.0" xmlns="http://www.w3.org/2000/svg"
 width="912.000000pt" height="912.000000pt" viewBox="0 0 912.000000 912.000000"
 preserveAspectRatio="xMidYMid meet">
<metadata>
Created by potrace 1.11, written by Peter Selinger 2001-2013
</metadata>
<g transform="translate(0.000000,912.000000) scale(0.100000,-0.100000)"
fill="#000000" stroke="none">
<path d="M4124 9109 c-3 -6 10 -27 29 -47 20 -21 58 -84 85 -143 35 -74 56
-109 71 -114 19 -6 21 -11 15 -73 -7 -90 15 -137 64 -137 l34 0 -6 -48 c-6
-44 -4 -51 19 -72 23 -22 25 -31 25 -102 0 -43 3 -89 7 -102 l6 -24 28 34 29
34 17 -22 c23 -29 74 -49 146 -58 31 -4 57 -11 57 -15 0 -10 -78 -20 -154 -20
-133 -1 -316 -44 -461 -110 -87 -39 -218 -126 -267 -177 -46 -49 -96 -147
-104 -207 l-7 -46 34 2 c26 2 33 0 30 -12 -2 -8 -6 -43 -9 -77 -5 -78 15 -119
54 -109 20 5 28 0 44 -26 17 -27 20 -46 18 -113 -3 -77 -2 -80 20 -83 22 -3
23 -7 17 -55 -7 -65 17 -120 55 -126 71 -9 46 -112 -63 -261 -22 -30 -91 -104
-153 -165 -62 -60 -120 -123 -128 -140 -45 -90 -207 -245 -257 -245 -32 0 -52
25 -47 59 5 31 4 32 -25 25 l-30 -6 7 45 c7 44 6 47 -24 62 -24 12 -30 21 -24
33 16 39 14 78 -6 111 -18 29 -25 32 -50 27 -37 -7 -42 2 -29 49 10 35 9 40
-12 55 -18 15 -22 28 -23 77 -1 47 -9 75 -39 136 -21 43 -44 77 -53 77 -17 0
-120 -97 -112 -105 3 -4 28 6 56 22 49 27 50 28 71 9 29 -26 28 -48 -3 -40
-33 8 -71 -14 -175 -101 -144 -121 -251 -251 -251 -305 0 -35 -55 -100 -84
-100 -23 0 -20 13 9 40 14 13 25 28 25 34 0 5 -12 -2 -27 -16 -59 -54 -116
-88 -150 -88 -18 0 -33 -5 -33 -11 0 -8 -5 -7 -15 1 -11 9 -14 22 -9 46 7 37
3 40 -28 23 -31 -17 -42 2 -27 50 11 36 10 43 -6 61 -10 11 -24 52 -31 92 -16
94 -24 115 -68 167 -31 37 -36 50 -36 94 0 57 -47 173 -74 183 -10 4 -41 -14
-81 -46 -36 -28 -65 -48 -65 -43 0 4 14 28 30 53 16 25 30 52 30 60 0 24 29
62 147 193 61 67 128 143 149 169 163 199 387 457 401 462 26 10 39 -12 56
-99 23 -120 31 -135 68 -135 26 0 30 -3 23 -17 -4 -10 -9 -40 -11 -68 -5 -67
23 -115 67 -115 l29 0 -6 -80 c-5 -65 -3 -84 11 -105 9 -14 25 -25 34 -24 35
3 43 -2 59 -38 11 -28 14 -54 9 -101 -4 -34 -4 -67 -1 -72 25 -41 275 232 275
300 0 35 27 76 82 124 49 43 77 48 46 8 -12 -15 -11 -16 5 -3 38 30 107 133
107 161 0 18 18 50 50 92 50 65 80 130 80 174 0 31 -19 116 -29 133 -5 7 -22
15 -37 17 -53 5 -90 87 -64 142 8 19 8 28 1 30 -32 11 -40 33 -34 95 5 56 3
64 -17 82 l-23 20 7 -55 c6 -52 5 -54 -10 -35 -9 11 -25 39 -36 63 -15 34 -17
49 -10 72 9 25 7 31 -15 45 -22 15 -24 21 -18 60 5 38 3 45 -14 55 -30 15 -26
35 16 92 l36 50 -29 -15 c-53 -28 -287 -287 -569 -632 -592 -724 -859 -1003
-1140 -1190 -110 -73 -244 -132 -322 -141 -35 -3 -63 -9 -63 -13 1 -3 23 -24
50 -45 28 -22 50 -43 50 -47 0 -4 -33 -7 -72 -6 l-73 2 2 -34 c2 -45 49 -173
74 -200 11 -11 31 -21 45 -21 21 0 25 -3 18 -17 -17 -38 -15 -117 3 -153 16
-31 22 -35 53 -32 l35 3 19 -71 c10 -39 16 -74 13 -76 -3 -3 -15 8 -28 25 -13
17 -26 31 -31 31 -16 0 -7 -38 17 -71 74 -101 79 -121 45 -177 -27 -44 -71
-69 -150 -83 -98 -17 -161 5 -92 32 26 11 25 12 -38 30 -116 34 -264 61 -308
56 -46 -5 -47 -3 -26 47 6 17 4 18 -22 11 -55 -15 -69 -12 -66 13 3 19 -5 26
-50 45 -29 13 -81 32 -116 42 -56 17 -64 17 -78 3 -28 -28 -20 -112 21 -238
42 -128 178 -484 224 -585 28 -62 60 -93 69 -67 6 19 36 14 72 -13 51 -38 51
-31 -2 36 -49 64 -30 65 34 2 76 -73 97 -85 138 -76 29 5 32 4 26 -15 -9 -28
23 -56 93 -84 43 -17 76 -21 143 -20 77 0 88 -2 93 -18 9 -28 37 -33 131 -25
49 4 84 3 84 -2 0 -5 -17 -18 -37 -28 l-38 -20 130 -6 c72 -4 145 -12 162 -19
30 -11 35 -10 70 19 37 31 83 42 83 20 0 -6 -20 -31 -45 -56 -25 -24 -45 -49
-45 -54 0 -6 10 -19 23 -29 18 -15 22 -29 23 -77 2 -103 61 -223 110 -223 25
0 25 -1 18 -59 -7 -61 16 -161 51 -221 13 -23 14 -21 8 30 l-6 55 22 -19 c29
-26 43 -84 35 -149 -6 -49 -4 -56 14 -61 30 -10 42 -28 50 -77 l8 -44 19 30
c14 20 20 44 18 78 l-1 48 31 -8 c112 -28 252 22 358 128 64 64 74 70 64 39
-8 -26 -3 -26 66 11 65 35 139 108 139 137 0 10 9 45 20 77 25 73 25 72 -9 89
-26 14 -28 18 -24 63 4 33 -2 68 -17 113 -27 81 -44 108 -76 120 -24 9 -25 13
-18 57 3 27 7 53 8 58 0 6 -8 10 -19 10 -38 1 -43 13 -44 100 -1 155 -55 198
-210 164 -56 -12 -105 -44 -97 -64 8 -23 -19 -35 -105 -46 -92 -12 -245 -5
-284 13 -18 8 -25 19 -25 39 0 31 7 37 64 59 32 12 42 22 49 50 12 46 22 57
60 66 43 9 54 19 63 57 8 42 19 54 55 62 40 9 57 38 64 115 11 114 8 110 68
110 62 0 77 -11 77 -58 0 -25 5 -35 20 -39 22 -6 22 -8 20 -75 -2 -60 51 -248
70 -248 10 0 207 206 228 239 14 22 194 243 225 276 5 6 7 -106 5 -295 -5
-344 -10 -372 -67 -383 -67 -14 -63 -87 7 -107 62 -18 356 -35 407 -23 25 6
45 8 45 5 0 -2 -73 -81 -163 -176 -153 -160 -277 -300 -277 -311 0 -3 11 2 25
11 49 32 37 5 -29 -65 -36 -39 -66 -75 -66 -80 0 -5 15 -11 33 -13 l32 -3 -3
-52 c-3 -49 -2 -53 23 -59 25 -6 26 -9 20 -53 -6 -48 6 -99 28 -113 7 -4 25
-8 40 -8 29 0 29 0 22 -51 -7 -46 -5 -51 15 -56 20 -5 22 -10 16 -53 -3 -26
-1 -61 5 -78 10 -31 20 -36 74 -44 17 -3 19 -10 16 -46 -2 -38 1 -47 33 -76
19 -19 46 -36 60 -38 22 -4 30 3 62 56 22 36 109 133 212 237 194 197 244 261
262 334 44 185 44 193 5 219 -20 13 -22 18 -12 54 14 53 -15 115 -56 120 -27
3 -28 5 -21 47 6 41 4 45 -21 57 -25 11 -27 16 -21 54 11 84 -50 239 -97 246
-20 3 -22 8 -22 68 l0 65 -39 0 c-39 0 -40 -1 -40 -35 -1 -32 -4 -36 -39 -44
-26 -7 -57 -6 -96 2 -31 7 -79 12 -105 12 -37 0 -52 5 -72 25 l-25 25 3 195
c4 226 5 230 88 229 59 -1 89 -19 104 -64 8 -24 21 -39 43 -49 26 -11 34 -22
39 -50 14 -92 75 -191 116 -191 11 0 40 19 63 43 32 31 48 59 64 110 35 115
130 227 192 227 23 0 40 9 63 35 18 19 35 35 39 35 4 0 7 -30 7 -67 0 -108 18
-297 32 -338 10 -30 20 -41 48 -50 28 -9 38 -20 48 -50 17 -52 28 -63 69 -71
29 -5 38 -14 53 -48 23 -54 38 -66 99 -73 28 -3 51 -9 51 -13 0 -4 -14 -26
-31 -50 -35 -49 -34 -48 44 4 31 21 60 37 63 34 12 -13 -94 -105 -141 -123
-60 -22 -75 -33 -75 -52 0 -12 8 -14 35 -9 40 8 45 -4 15 -34 -12 -12 -33 -20
-52 -20 -36 0 -85 -34 -120 -82 l-23 -33 45 33 c26 19 46 28 49 21 6 -20 -81
-99 -124 -111 -48 -14 -65 -26 -65 -45 0 -12 8 -14 35 -9 54 10 43 -12 -19
-39 -48 -21 -56 -29 -65 -62 -17 -62 -13 -176 8 -230 10 -26 22 -75 26 -109 8
-77 16 -89 49 -80 39 10 45 1 32 -45 -10 -37 -9 -42 13 -58 24 -18 25 -42 5
-94 -6 -15 -3 -17 20 -11 52 13 99 -65 77 -128 -6 -18 -7 -36 -3 -40 12 -12
105 24 143 56 56 47 44 18 -19 -48 -64 -67 -74 -86 -44 -86 71 0 114 35 277
226 56 66 146 169 199 229 120 136 145 173 157 226 11 49 8 55 -21 39 -31 -17
-41 -1 -28 44 11 35 10 39 -11 55 -20 16 -22 23 -16 59 12 73 -40 215 -97 263
-30 25 -31 28 -21 68 l11 41 -33 0 c-44 0 -58 21 -62 88 -5 68 22 122 59 122
43 0 72 24 88 70 13 39 20 45 53 53 72 17 87 90 27 125 -23 13 -28 22 -23 39
6 26 1 28 -28 13 -16 -9 -19 -7 -19 8 0 39 48 54 106 32 28 -11 29 -6 9 42 -6
15 -1 16 47 11 40 -4 63 -1 87 12 29 15 32 20 27 47 l-6 30 74 -7 73 -7 7 27
c7 26 10 27 52 22 55 -6 64 7 64 92 0 66 -10 76 -36 36 -27 -42 -37 -30 -29
37 7 59 6 63 -20 84 -24 19 -26 24 -15 44 27 51 -7 170 -50 170 -27 0 -32 14
-21 56 9 34 9 36 -12 29 -43 -13 -52 -11 -49 10 18 111 7 188 -28 191 -8 1
-21 2 -27 3 -9 1 -13 20 -13 60 0 49 4 62 25 84 26 25 85 39 108 25 8 -5 3
-15 -18 -32 l-30 -24 38 -7 c21 -4 64 -2 94 4 65 13 223 15 223 3 0 -4 -5 -13
-11 -19 -6 -6 -9 -16 -5 -21 11 -19 108 -35 172 -29 l63 6 -5 -28 c-7 -35 6
-41 116 -50 74 -6 75 -6 80 -36 5 -27 12 -32 74 -52 86 -28 105 -46 155 -142
89 -172 296 -729 277 -748 -3 -3 -12 0 -21 7 -25 21 -17 1 20 -47 19 -25 33
-48 31 -51 -13 -13 -61 14 -116 64 -62 58 -82 96 -37 73 21 -11 21 -11 7 6
-23 28 -74 45 -161 55 -91 10 -119 23 -119 51 0 13 -11 25 -33 34 -87 36 -508
71 -555 46 -25 -13 -28 -40 -11 -106 13 -52 33 -72 74 -77 17 -1 29 -7 28 -13
-1 -5 -4 -27 -8 -47 -6 -34 -5 -39 18 -47 22 -9 24 -13 19 -59 -8 -83 54 -238
103 -260 20 -9 25 -17 19 -30 -4 -9 -9 -33 -11 -53 -9 -68 68 -129 164 -129
76 -1 126 -16 153 -48 31 -36 53 -48 110 -57 62 -10 240 -67 390 -126 69 -27
161 -61 205 -76 73 -26 82 -32 113 -78 77 -115 285 -616 989 -2380 272 -682
554 -1388 626 -1570 73 -181 140 -338 149 -347 31 -31 67 -33 141 -7 97 34 94
29 73 96 -63 200 -407 1090 -1039 2683 -918 2316 -1889 4742 -2127 5315 -196
472 -289 680 -348 779 -48 79 -74 83 -167 32 l-63 -36 -27 32 c-24 31 -26 32
-40 15 -12 -17 -19 -18 -63 -8 -27 6 -83 23 -123 39 -195 77 -353 116 -559
137 -162 18 -266 19 -276 4z m251 -49 c12 -20 -106 -50 -142 -36 -17 7 -16 9
6 27 25 21 125 27 136 9z m793 -257 c18 -25 15 -33 -13 -33 -52 0 -98 39 -62
54 19 8 61 -4 75 -21z m-1988 -412 c0 -15 -86 -116 -115 -135 -60 -39 -32 14
54 102 39 40 61 52 61 33z m1800 -200 c0 -5 -14 -21 -32 -36 l-31 -27 79 4
c76 3 79 2 82 -21 4 -22 6 -23 67 -16 61 6 64 5 81 -20 15 -23 21 -25 58 -20
39 6 42 5 53 -24 18 -48 148 -103 168 -71 12 19 25 10 45 -30 58 -113 330
-798 330 -830 0 -11 -98 -14 -125 -4 -9 4 -21 18 -26 31 -13 35 -72 57 -131
49 -45 -6 -49 -5 -57 18 -23 60 -212 111 -371 100 l-97 -7 -32 32 c-17 17 -40
31 -51 31 -22 0 -45 -38 -55 -92 -6 -31 -4 -39 14 -50 19 -11 20 -19 15 -78
-7 -90 14 -134 69 -138 28 -2 37 -7 33 -17 -2 -7 -8 -30 -12 -50 -5 -29 -2
-41 16 -60 19 -20 21 -30 15 -73 -7 -53 13 -121 37 -123 7 -1 20 -2 28 -3 11
-1 15 -14 15 -51 0 -42 3 -50 20 -53 81 -15 5 -103 -123 -142 -78 -24 -92 -35
-92 -67 0 -27 3 -26 -69 -6 -21 5 -23 4 -17 -13 23 -56 23 -56 -36 -49 -49 6
-56 5 -60 -13 -5 -17 -17 -20 -126 -24 -136 -6 -177 -21 -201 -76 -8 -18 -20
-31 -25 -29 -6 2 -30 41 -53 88 -25 50 -56 96 -77 114 -34 28 -35 32 -25 60 8
22 8 41 0 73 -15 53 -37 64 -62 31 -25 -33 -34 -18 -20 35 16 65 14 74 -18 90
-27 15 -28 17 -17 56 9 35 8 47 -9 78 -15 27 -28 38 -47 40 -16 2 -28 9 -28
15 0 7 18 50 40 96 l39 85 51 13 c52 13 119 53 154 92 17 18 17 21 3 15 -26
-10 -21 19 8 46 21 20 35 24 73 22 58 -2 154 21 199 50 29 17 33 25 28 45 l-6
25 71 -7 c60 -6 74 -4 91 10 27 25 24 59 -6 73 -24 11 -25 14 -19 79 4 54 2
75 -13 103 -15 30 -23 35 -53 35 -38 0 -37 -1 -24 71 5 27 3 33 -16 39 -20 6
-22 12 -16 54 11 80 -51 241 -92 241 -39 0 -54 48 -32 104 12 33 53 44 220 55
74 5 146 14 160 20 32 13 40 13 40 2z m-3169 -1299 c-21 -40 -90 -92 -122 -92
-16 0 -28 4 -24 10 8 14 148 110 153 106 2 -2 -1 -13 -7 -24z m1089 -141 c0
-15 -86 -116 -115 -135 -61 -40 -34 16 46 96 46 46 69 59 69 39z m960 -120 c0
-15 -86 -116 -115 -135 -38 -25 -43 -11 -9 27 100 111 124 132 124 108z m-216
-266 c-16 -25 -91 -85 -106 -85 -21 0 -3 24 50 65 64 51 80 56 56 20z m-1206
-281 l45 -26 -7 26 c-8 32 12 35 39 6 14 -15 17 -31 13 -72 -5 -51 6 -98 24
-98 4 0 8 -6 8 -14 0 -8 -19 -20 -42 -28 -37 -11 -44 -19 -58 -58 -13 -37 -22
-47 -50 -56 -44 -14 -70 -61 -70 -126 0 -71 -14 -96 -65 -118 -34 -14 -46 -26
-50 -47 -10 -46 -20 -57 -66 -73 -34 -12 -46 -22 -53 -45 -14 -50 -22 -60 -55
-71 -57 -19 -66 -36 -66 -123 0 -93 14 -116 76 -125 21 -3 57 -9 79 -12 84
-12 22 -54 -81 -54 -72 0 -106 16 -119 56 -7 20 -22 39 -38 47 -19 9 -26 19
-23 32 10 54 4 132 -13 165 l-19 34 -23 -27 c-13 -15 -25 -27 -28 -27 -3 0 -2
29 1 66 5 59 4 66 -16 80 -20 14 -21 22 -16 67 5 43 1 61 -20 102 -23 46 -24
47 -18 15 19 -95 -3 -123 -30 -40 -24 71 -30 288 -8 314 8 9 21 14 30 12 9 -2
31 -8 49 -11 l33 -7 -7 38 c-7 37 -7 37 22 31 16 -3 36 -8 45 -12 11 -4 25 2
37 16 18 18 27 20 66 15 43 -7 62 3 36 19 -5 3 -10 13 -10 22 0 11 6 14 23 9
72 -21 71 -21 123 42 46 57 81 81 68 47 -8 -20 -3 -19 47 10 60 34 127 34 187
-1z m-1784 -40 c13 -34 4 -104 -14 -104 -13 0 -22 57 -15 90 7 33 19 39 29 14z
m2783 -66 c25 -24 40 -31 69 -30 l36 1 -7 -50 c-6 -46 -5 -51 15 -56 16 -4 20
-12 18 -32 -6 -55 -149 -67 -169 -14 -10 28 -12 213 -2 213 4 0 22 -14 40 -32z
m1036 -86 c-2 -38 0 -43 15 -37 31 14 57 11 54 -5 -16 -68 -15 -80 9 -88 23
-9 24 -14 24 -93 0 -115 35 -185 97 -198 21 -5 32 -13 30 -22 -13 -56 -13
-112 2 -162 16 -56 36 -76 36 -37 0 29 24 25 76 -15 47 -36 68 -43 79 -25 9
15 45 12 45 -4 0 -10 -20 -19 -56 -26 -71 -15 -317 -15 -344 0 -11 6 -28 29
-37 51 -12 31 -22 41 -45 46 -60 12 -63 28 -63 333 0 306 4 334 53 328 25 -3
27 -6 25 -46z m-1529 -348 c-42 -54 -140 -124 -175 -124 -24 0 -29 4 -29 25 0
21 5 25 30 25 39 0 92 28 150 79 25 22 47 38 48 36 2 -2 -9 -21 -24 -41z
m-2070 -86 c44 -88 29 -125 -16 -40 -36 66 -43 92 -25 92 9 0 27 -23 41 -52z
m2904 -69 c45 -43 46 -59 7 -59 -19 0 -30 10 -45 40 -37 72 -24 78 38 19z
m1123 -134 c-1 -15 -24 -12 -29 3 -3 9 2 13 12 10 10 -1 17 -7 17 -13z m-1028
-274 c30 -55 35 -91 11 -91 -15 0 -46 58 -59 113 -12 46 19 32 48 -22z m2886
-85 c25 -51 27 -86 5 -86 -18 0 -44 58 -52 115 -5 36 -4 39 11 27 9 -8 25 -33
36 -56z m-3219 15 c0 -25 -160 -191 -184 -191 -20 0 5 33 81 111 83 85 103
101 103 80z m1453 -330 c30 -55 35 -91 11 -91 -15 0 -46 58 -59 113 -12 46 19
32 48 -22z m1905 -43 c7 -7 12 -27 12 -45 0 -35 -15 -42 -51 -23 -23 13 -24
37 -2 62 19 21 25 22 41 6z m-2918 -347 c0 -25 -118 -151 -141 -151 -21 0 -4
27 58 91 63 66 83 80 83 60z m920 -125 c0 -17 -161 -186 -177 -186 -26 0 -11
23 73 110 86 89 104 102 104 76z"/>
<path d="M3890 9061 c-14 -5 -41 -16 -60 -27 l-35 -19 28 -3 c29 -3 149 29
177 48 18 12 -71 13 -110 1z"/>
<path d="M3663 8950 c-76 -43 -87 -67 -15 -32 52 25 82 45 82 54 0 13 -13 9
-67 -22z"/>
<path d="M3660 7725 c-35 -36 -61 -65 -57 -65 11 0 95 58 119 82 18 18 25 48
10 48 -4 0 -37 -29 -72 -65z"/>
<path d="M300 7005 c0 -8 103 -73 128 -80 47 -14 19 12 -53 48 -41 20 -75 35
-75 32z"/>
<path d="M200 6923 c0 -24 57 -193 71 -207 26 -28 -13 122 -52 194 -15 29 -18
31 -19 13z"/>
<path d="M566 6860 c55 -27 192 -65 202 -55 12 11 -154 72 -220 80 l-43 5 61
-30z"/>
<path d="M1088 6753 c-35 -5 -36 -21 -3 -29 30 -7 115 4 115 15 0 9 -53 22
-74 20 -6 -1 -23 -4 -38 -6z"/>
<path d="M313 6608 c3 -9 11 -35 17 -57 10 -39 26 -59 37 -47 9 9 -26 93 -44
108 -14 11 -16 11 -10 -4z"/>
<path d="M470 6210 c0 -20 42 -110 51 -110 14 0 10 21 -10 66 -19 42 -41 65
-41 44z"/>
<path d="M954 4955 c12 -49 34 -95 45 -95 16 0 13 19 -8 66 -24 52 -47 70 -37
29z"/>
<path d="M5727 4626 c-21 -8 -55 -25 -75 -39 -20 -13 -77 -46 -127 -72 -112
-59 -242 -144 -275 -181 -30 -33 -18 -26 83 43 75 53 294 163 390 196 26 10
67 24 92 33 25 9 45 20 45 25 0 14 -90 10 -133 -5z"/>
<path d="M1220 4342 c0 -51 171 -500 313 -822 80 -182 115 -255 93 -195 -4 11
-13 40 -19 64 -11 40 -10 44 12 62 35 29 105 26 136 -6 31 -31 32 -49 3 -42
-20 5 -20 3 6 -18 38 -30 99 -45 158 -38 45 5 47 5 50 -23 6 -56 124 -106 240
-103 35 1 77 2 93 2 18 0 45 -10 62 -23 30 -22 38 -23 132 -17 55 4 106 4 115
1 9 -3 25 -25 35 -48 27 -59 74 -106 106 -106 26 0 27 -1 20 -50 -6 -43 -4
-51 12 -57 28 -10 33 -24 27 -83 -10 -94 45 -260 85 -260 22 0 31 -19 31 -65
0 -51 19 -83 57 -96 47 -15 60 -44 30 -64 -25 -16 -153 -44 -210 -46 -30 -1
-30 -2 8 -9 57 -11 349 6 418 24 85 23 232 98 365 186 127 84 280 219 249 220
-10 0 -22 12 -27 26 -7 17 -15 24 -25 20 -8 -3 -22 -9 -32 -13 -13 -5 -15 -2
-8 18 18 56 17 97 -4 144 -20 45 -23 47 -52 41 l-31 -6 6 63 c12 109 -45 236
-100 223 -30 -8 -35 2 -24 49 9 41 -8 176 -30 230 -7 17 -14 45 -15 63 -4 38
-30 72 -55 72 -21 0 -26 -11 -35 -74 -7 -46 -7 -47 17 -41 25 6 58 -14 58 -36
0 -11 -6 -12 -85 -14 -69 -1 -154 -37 -199 -83 l-27 -29 25 4 c43 8 22 -22
-42 -62 -65 -40 -97 -46 -87 -15 8 24 -3 25 -48 7 -51 -22 -97 -65 -94 -90 2
-24 -5 -25 -101 -12 -47 7 -55 5 -78 -16 -19 -18 -29 -21 -42 -13 -9 5 -45 68
-80 138 -44 89 -71 132 -90 143 -25 14 -27 20 -28 87 0 87 -40 192 -87 232
-29 24 -30 27 -20 70 10 44 10 44 -18 44 -28 0 -46 18 -92 90 -31 48 -79 77
-148 91 -33 6 -62 16 -65 20 -8 13 -192 11 -239 -2 -37 -10 -41 -9 -61 16 -18
23 -27 26 -65 23 -41 -3 -44 -1 -41 19 5 38 -50 65 -119 58 -52 -5 -57 -4 -62
16 -5 20 -10 21 -56 15 -54 -7 -60 -2 -41 35 15 27 4 24 -40 -11 -62 -49 -69
-41 -44 49 7 22 5 23 -27 19 -19 -3 -42 -1 -51 4 -10 5 -18 5 -18 0z m2080
-1910 c0 -24 -85 -72 -125 -72 -40 0 -26 21 35 53 53 27 90 35 90 19z"/>
<path d="M3702 3846 c-67 -70 -81 -93 -29 -51 29 24 97 102 97 111 0 9 -11 0
-68 -60z"/>
<path d="M4395 3363 c-61 -69 -148 -172 -194 -227 -45 -56 -124 -144 -175
-195 -72 -75 -87 -96 -73 -99 21 -4 111 88 231 237 38 47 102 124 141 171 110
132 193 240 183 240 -2 0 -53 -57 -113 -127z"/>
<path d="M1710 3050 c0 -20 42 -110 51 -110 14 0 10 21 -10 66 -19 42 -41 65
-41 44z"/>
<path d="M1835 2719 c12 -44 38 -99 47 -99 13 0 9 21 -11 66 -22 48 -47 71
-36 33z"/>
<path d="M1965 2562 c15 -15 193 -112 206 -112 23 0 -14 30 -85 69 -70 39
-142 64 -121 43z"/>
<path d="M2245 2420 c9 -14 81 -50 100 -50 26 0 6 20 -39 41 -46 21 -70 24
-61 9z"/>
</g>
</svg>
