<?xml version="1.0" encoding="UTF-8" standalone="no"?>
<svg
   xmlns:dc="http://purl.org/dc/elements/1.1/"
   xmlns:cc="http://creativecommons.org/ns#"
   xmlns:rdf="http://www.w3.org/1999/02/22-rdf-syntax-ns#"
   xmlns:svg="http://www.w3.org/2000/svg"
   xmlns="http://www.w3.org/2000/svg"
   viewBox="0 0 220.612 227.9597"
   height="227.9597"
   width="220.612"
   id="svg10"
   version="1.1">
  <metadata
     id="metadata16">
    <rdf:RDF>
      <cc:Work
         rdf:about="">
        <dc:format>image/svg+xml</dc:format>
        <dc:type
           rdf:resource="http://purl.org/dc/dcmitype/StillImage" />
        <dc:title></dc:title>
      </cc:Work>
    </rdf:RDF>
  </metadata>
  <defs
     id="defs14" />
  <g
     transform="translate(-0.19923319,0.02707405)"
     id="g3724">
    <path
       id="path3730"
       d="m 214.68202,227.29451 c -0.29489,-0.47714 -9.82653,-24.25111 -21.1814,-52.83102 -11.35488,-28.57992 -21.28868,-52.67501 -22.07511,-53.54464 -0.78643,-0.86963 -1.09139,-1.95428 -0.67769,-2.41033 0.4137,-0.45604 0.24081,-0.53706 -0.38421,-0.18005 -0.62501,0.35702 -4.10263,-0.69583 -7.72804,-2.33967 -3.62541,-1.64384 -7.63654,-2.9888 -8.91361,-2.9888 -1.27708,0 -2.77102,-0.44906 -3.31987,-0.99791 -1.35064,-1.35064 -11.68323,1.38777 -17.00782,4.50751 -6.81674,3.99403 -11.11216,8.32589 -23.19747,23.39425 -14.563526,18.15827 -20.793176,24.28562 -28.539564,28.0709 -5.583016,2.72815 -6.956414,2.98539 -14.726643,2.75833 -7.605473,-0.22225 -9.416972,-0.66931 -16.104299,-3.97437 -7.534892,-3.72394 -7.534892,-3.72394 -11.815655,-14.99133 C 34.855766,140.83135 26.064896,118.58343 23.494833,112.5 22.204421,109.44555 19.989608,103.80283 13.560186,87.18933 11.578411,82.068461 10.218201,77.455961 10.537496,76.93933 10.856792,76.422698 10.720304,76 10.23419,76 9.229523,76 -0.47736075,52.144027 0.23674173,51.429925 0.49227377,51.174393 3.5829927,52.313807 7.1050059,53.961956 21.716429,60.799466 32.563946,60.175159 43.110104,51.889756 45.095661,50.329838 47.045661,49.378994 47.443437,49.77677 47.841213,50.174547 48.016667,49.825 47.833333,49 47.65,48.175 48.0625,47.6125 48.75,47.75 c 0.6875,0.1375 1.143251,-0.0875 1.012781,-0.5 -0.430716,-1.361768 12.469025,-16.22477 13.518629,-15.576079 0.593296,0.366677 0.724462,0.144597 0.310346,-0.525456 -0.422785,-0.68408 2.333445,-4.756311 6.7134,-9.91881 C 83.295152,5.9188064 89.76206,1.2928884 99.59494,0.27804576 c 6.26278,-0.64637639 16.31379,1.12458284 21.55345,3.79765754 2.75253,1.4042378 3.82488,1.5717317 4.19565,0.6553321 0.35855,-0.8862105 0.52018,-0.8466003 0.57701,0.1414093 0.0547,0.9503762 0.46336,1.0716761 1.32895,0.3944321 0.6875,-0.5379069 2.1747,-1.2029176 3.30489,-1.4778015 1.87306,-0.4555656 4.1496,4.7300973 25.72825,58.6055677 38.28529,95.586987 65.03078,163.624777 64.52092,164.134637 -0.91263,0.91263 -5.6639,1.50652 -6.12204,0.76523 z M 111,135.5 c 1.29175,-1.375 2.12363,-2.5 1.84863,-2.5 -0.275,0 -1.55688,1.125 -2.84863,2.5 -1.29175,1.375 -2.12363,2.5 -1.84863,2.5 0.275,0 1.55688,-1.125 2.84863,-2.5 z M 88.5,132 c 0.995486,-1.1 1.584975,-2 1.309975,-2 -0.275,0 -1.314489,0.9 -2.309975,2 -0.995486,1.1 -1.584975,2 -1.309975,2 0.275,0 1.314489,-0.9 2.309975,-2 z m 28.5,-3.5 c 1.29175,-1.375 2.12363,-2.5 1.84863,-2.5 -0.275,0 -1.55688,1.125 -2.84863,2.5 -1.29175,1.375 -2.12363,2.5 -1.84863,2.5 0.275,0 1.55688,-1.125 2.84863,-2.5 z M 75.396994,116.16667 c 0.283266,-0.45834 -0.140176,-0.83334 -0.940983,-0.83334 C 73.655205,115.33333 73,115.70833 73,116.16667 73,116.625 73.423442,117 73.940983,117 c 0.517541,0 1.172746,-0.375 1.456011,-0.83333 z M 169,115.44098 c 0,-0.85746 -0.45734,-1.27636 -1.01631,-0.9309 -0.55897,0.34546 -0.75742,1.04702 -0.44098,1.55902 0.85723,1.38704 1.45729,1.12841 1.45729,-0.62812 z m -6.61844,-17.992918 c 0.32754,-0.853566 0.18178,-1.296225 -0.32392,-0.983688 -0.50569,0.312537 -1.2021,0.110909 -1.54756,-0.448062 C 160.16462,95.45734 159.45852,95 158.94098,95 c -0.69142,0 1.54582,3.242935 2.70203,3.916667 0.0787,0.04583 0.411,-0.615039 0.73855,-1.468605 z M 18.122073,91.325003 c -1.178845,-2.027217 -1.463513,-1.378356 -0.498534,1.136338 0.342946,0.893703 0.834195,1.414259 1.091663,1.15679 0.257469,-0.257469 -0.0094,-1.289377 -0.593129,-2.293128 z M 86.5,70 c 0.995486,-1.1 1.584975,-2 1.309975,-2 -0.275,0 -1.314489,0.9 -2.309975,2 -0.995486,1.1 -1.584975,2 -1.309975,2 0.275,0 1.314489,-0.9 2.309975,-2 z M 90.324187,33.65752 C 90.695884,34.029217 91,33.856478 91,33.273655 c 0,-0.582822 -0.773784,-1.356606 -1.719519,-1.719519 -0.945736,-0.362913 -1.39162,-0.331942 -0.990854,0.06882 0.400766,0.400766 -0.28795,1.88705 -1.530481,3.302853 C 84.5,37.5 84.5,37.5 87.074187,35.240854 c 1.415803,-1.242531 2.878303,-1.955031 3.25,-1.583334 z M 114.00874,22.25861 c -1.9202,-0.231723 -3.8258,-0.947206 -4.23469,-1.589962 -0.48765,-0.766575 -0.74869,-0.566561 -0.75874,0.581352 -0.0124,1.419362 0.78767,1.719763 4.23469,1.589963 4.05049,-0.152524 4.08611,-0.179815 0.75874,-0.581353 z M 106,1.3833686 C 106,1.1725159 105.1,1 104,1 c -1.1,0 -2,0.4078712 -2,0.9063804 0,0.4985092 0.9,0.6710251 2,0.3833686 1.1,-0.2876564 2,-0.6955276 2,-0.9063804 z"
       style="fill:#f7ee1c" />
    <path
       id="path3728"
       d="m 214.68202,227.29451 c -0.29489,-0.47714 -9.82653,-24.25111 -21.1814,-52.83102 -11.35488,-28.57992 -21.4002,-52.82834 -22.32293,-53.88538 -1.07092,-1.22681 -1.16972,-1.62301 -0.27318,-1.0955 0.97086,0.57125 1.17413,0.45365 0.65836,-0.38089 -0.41038,-0.66401 -1.26203,-1.03533 -1.89256,-0.82516 -0.63052,0.21018 -3.9544,-0.89107 -7.3864,-2.44721 -3.432,-1.55614 -7.389,-2.82935 -8.79334,-2.82935 -1.40434,0 -2.79436,-0.62809 -3.08894,-1.39575 -0.32167,-0.83826 -1.73327,-1.31283 -3.53413,-1.18815 -3.06055,0.21188 -5.61762,-2.39336 -4.35473,-4.43677 C 142.84567,105.4407 142.6855,105 142.15684,105 c -1.19052,0 -3.33552,-5.901878 -2.58585,-7.114869 C 139.87187,97.398309 139.6556,97 139.0904,97 c -0.5652,0 -0.74028,-0.74882 -0.38908,-1.664045 0.40044,-1.043528 0.24137,-1.418566 -0.4266,-1.005743 C 137.18237,95.005321 136,92.960923 136,90.397072 c 0,-1.147317 1.26809,-1.347333 6.25,-0.985815 6.78622,0.49245 10.00116,1.373333 9.27869,2.542327 -0.25291,0.409208 0.93633,0.78371 2.64275,0.832227 1.70642,0.04852 3.60343,0.632575 4.21557,1.297906 0.84446,0.917834 0.75109,1.015602 -0.38701,0.40523 -0.825,-0.442455 -0.375,0.287777 1,1.622736 1.375,1.334959 2.76462,2.059816 3.08804,1.610792 0.32343,-0.449024 -1.47657,-5.933136 -4,-12.186917 -4.10498,-10.173343 -4.88456,-11.430605 -7.40432,-11.941289 -1.54895,-0.313929 -2.56629,-0.975257 -2.26076,-1.469619 0.30553,-0.494362 -0.002,-0.878757 -0.68372,-0.854211 -3.42145,0.123219 -4.80626,-0.352988 -4.14375,-1.424947 0.43152,-0.698206 0.2754,-0.883732 -0.39499,-0.469406 -0.60969,0.376807 -2.29698,0.38682 -3.74953,0.02225 -1.93855,-0.486545 -2.28326,-0.886864 -1.29599,-1.505061 0.76807,-0.480943 -1.01421,-0.603521 -4.15498,-0.285761 -3.95663,0.400301 -5.08262,0.265252 -4.01261,-0.481268 1.23497,-0.861604 1.15,-1.0123 -0.50065,-0.88796 -1.31646,0.09917 -2.03639,0.926492 -2.13119,2.449116 -0.0787,1.264649 0.2119,2.079924 0.64586,1.811722 1.14018,-0.704667 2.04776,2.209163 1.29727,4.164919 -0.46664,1.216043 -0.27783,1.441103 0.70132,0.835955 0.98728,-0.610176 1.1666,-0.376524 0.68139,0.887893 -0.36295,0.945841 -0.24713,1.461753 0.25807,1.149524 1.11962,-0.691967 2.43476,3.048058 1.56607,4.453634 C 132.16257,82.545973 132.31639,83 132.84736,83 c 0.53097,0 0.74349,1.0125 0.47227,2.25 -0.39617,1.807649 -0.28248,1.9551 0.57831,0.75 0.86767,-1.214738 1.07435,-0.982988 1.08675,1.218615 0.0113,2.009018 -0.37621,2.568374 -1.48469,2.143011 -0.825,-0.316582 -1.5,-0.04713 -1.5,0.598773 0,0.742368 -0.78179,0.926246 -2.12523,0.499855 -1.31653,-0.417852 -1.8895,-0.293106 -1.50574,0.327827 0.757,1.224852 -2.13576,2.474124 -3.61378,1.560655 -0.67592,-0.417739 -0.76558,-0.174463 -0.24571,0.666694 0.59112,0.956458 0.3651,1.150444 -0.81347,0.698183 -0.89761,-0.344446 -1.89995,-0.19274 -2.22743,0.337124 -0.32747,0.529864 0.10812,1.233355 0.96798,1.563315 C 124.43261,96.379986 124.48165,99 122.5,99 c -0.825,0 -1.5,0.675 -1.5,1.5 0,0.825 -0.62686,1.5 -1.39301,1.5 -0.76616,0 -1.65203,0.675 -1.96862,1.5 -0.78471,2.04492 0.32441,4.64104 1.63635,3.83021 0.66797,-0.41282 0.82704,-0.0378 0.4266,1.00575 -0.3512,0.91522 -0.25727,1.66404 0.20874,1.66404 1.23907,0 3.39562,5.69638 2.62724,6.93964 -0.36043,0.5832 -0.1929,1.06036 0.3723,1.06036 0.5652,0 0.74028,0.74882 0.38908,1.66404 -0.40551,1.05675 -0.24362,1.41997 0.4436,0.99524 2.17508,-1.34427 0.56757,2.42877 -2.38443,5.59656 -1.66273,1.78429 -4.6476,5.28395 -6.63304,7.77703 -1.98544,2.49307 -4.50931,4.60062 -5.60862,4.68342 -1.78394,0.13438 -1.70434,-0.13781 0.74071,-2.53286 1.5067,-1.47589 1.78876,-1.89593 0.62682,-0.93343 -2.20845,1.82938 -5.01111,2.41235 -4.03949,0.84024 0.86718,-1.40313 -0.51925,-4.16191 -1.71895,-3.42045 -0.66797,0.41282 -0.82704,0.0378 -0.4266,-1.00575 C 104.64988,130.74882 104.51548,130 104,130 c -0.51548,0 -0.64988,-0.74882 -0.29868,-1.66404 0.42936,-1.11889 0.25527,-1.42717 -0.53138,-0.94099 -0.65329,0.40376 -1.2372,0.145 -1.32225,-0.58595 -0.0838,-0.71996 -0.20817,-1.75902 -0.27644,-2.30902 -0.0683,-0.55 -0.34927,-1.45 -0.62446,-2 -0.960106,-1.9189 -0.43763,-6.9991 0.71988,-6.99955 0.64166,-2.5e-4 1.54166,-0.4101 2,-0.91078 0.48416,-0.52889 0.30957,-0.60891 -0.41667,-0.19098 -0.6875,0.39564 -1.25,0.24279 -1.25,-0.33967 0,-0.58246 0.6199,-1.05902 1.37756,-1.05902 0.75765,0 1.99515,-0.7875 2.75,-1.75 1.27108,-1.62075 1.22473,-1.64049 -0.62756,-0.26723 -1.97532,1.46446 -1.97675,1.4555 -0.11635,-0.72642 1.036,-1.21505 2.24241,-1.98746 2.6809,-1.71646 0.43849,0.27101 1.12288,-0.0341 1.52086,-0.67809 0.45192,-0.73122 0.29014,-0.90292 -0.4309,-0.45729 C 108.51953,107.79695 108,107.64148 108,107.05902 108,106.47656 108.60526,106 109.34501,106 c 0.73976,0 2.18963,-0.93329 3.22194,-2.07398 1.03231,-1.14069 1.43955,-1.9874 0.90499,-1.88158 C 110.68444,102.59624 108,101.83856 108,100.5 c 0,-0.825 -0.675,-1.5 -1.5,-1.5 -0.825,0 -1.5,-0.675 -1.5,-1.5 0,-0.825 -0.675,-1.5 -1.5,-1.5 -1.17009,0 -1.50669,-1.374626 -1.53041,-6.25 -0.0233,-4.780644 -0.2728,-5.833636 -1.06146,-4.478968 -0.56708,0.974068 -1.393253,1.54718 -1.835944,1.273582 -1.029147,-0.636049 -4.395441,3.050186 -4.703746,5.150802 -0.129114,0.879707 -0.967335,2.320619 -1.862714,3.202026 -1.494447,1.471126 -1.74597,1.443359 -3.066844,-0.338572 C 88.647497,93.491249 88,92.028749 88,91.30887 88,90.588992 87.55,90 87,90 86.45,90 86,89.325 86,88.5 86,87.566667 85.055556,87 83.5,87 81.11627,87 81,87.27396 81,92.890594 c 0,5.890594 0,5.890594 3.390687,6.286438 4.000121,0.466991 5.841281,0.0073 5.056527,-1.262442 C 89.136327,97.411565 89.636008,97 90.557614,97 c 1.183704,0 1.521995,0.587574 1.152276,2.00138 -0.287855,1.10076 -0.167564,1.78148 0.267313,1.51271 1.079341,-0.66707 3.377968,5.10221 2.5601,6.42555 -0.360435,0.5832 -0.130634,1.06036 0.510669,1.06036 0.64295,0 0.898856,0.69618 0.570471,1.55194 -0.327544,0.85356 -0.197842,1.30615 0.288227,1.00574 1.066206,-0.65895 2.331463,2.248 1.537557,3.53256 C 97.134984,114.59061 97.3557,115 97.934708,115 c 0.579009,0 0.864006,1.0125 0.633328,2.25 -0.230679,1.2375 -0.487285,2.25 -0.570237,2.25 -0.08295,0 -0.312651,0.9 -0.510442,2 -0.197792,1.1 -2.809419,4.25 -5.803615,7 -2.994197,2.75 -5.712725,5.79769 -6.041174,6.77265 -0.497889,1.47791 -0.916894,1.57298 -2.520094,0.57176 -1.101814,-0.68809 -1.679452,-1.83533 -1.352756,-2.68669 0.343829,-0.896 0.147336,-1.22449 -0.494994,-0.82751 -1.199708,0.74146 -2.586135,-2.01732 -1.718951,-3.42045 C 79.865016,128.40939 79.655599,128 79.090402,128 c -0.565198,0 -0.740283,-0.74882 -0.389078,-1.66404 0.400439,-1.04353 0.241361,-1.41857 -0.4266,-1.00575 -1.199708,0.74146 -2.586135,-2.01732 -1.718951,-3.42045 C 76.865016,121.40939 76.593331,121 75.952028,121 c -0.641303,0 -0.909055,-0.6696 -0.595005,-1.488 0.31405,-0.81841 0.249695,-1.44012 -0.143011,-1.38158 -2.112716,0.3149 -1.970043,-0.39899 0.575663,-2.88042 1.551675,-1.5125 1.896275,-2.07822 0.765776,-1.25715 -1.727144,1.2544 -1.667912,1.01481 0.37084,-1.5 1.33446,-1.64607 4.25946,-4.7956 6.5,-6.99897 2.24054,-2.20337 3.760231,-3.77837 3.377092,-3.5 -0.383139,0.27837 -3.420639,0.35365 -6.75,0.1673 C 75.668666,101.91576 74,101.43335 74,100.41118 74,99.635031 74.675,99 75.5,99 76.7164,99 77,97.38312 77,90.448084 v -8.551916 l -4.973936,5.976791 c -2.735665,3.287235 -5.39183,6.235063 -5.902589,6.550729 -1.074754,0.664235 -3.370098,-5.215626 -2.552482,-6.538557 C 63.871866,87.398309 63.655599,87 63.090402,87 c -0.565198,0 -0.805678,-0.578404 -0.534401,-1.285341 0.293,-0.763545 -0.32868,-1.347255 -1.531384,-1.437852 C 59.416619,84.155681 59,84.728839 59,87.062149 59,89.006905 58.492948,90 57.5,90 56.675,90 56,90.675 56,91.5 56,92.325 55.325,93 54.5,93 53.675,93 53,93.675 53,94.5 53,95.325 52.325,96 51.5,96 50.675,96 50,96.698124 50,97.551388 c 0,1.239202 1.097587,1.506982 5.454395,1.330718 2.999918,-0.121368 5.240453,-0.566835 4.978968,-0.989927 -0.771672,-1.248592 2.560072,-2.61609 5.161971,-2.118706 2.248209,0.429773 2.827917,1.722584 2.675105,5.965767 -0.02455,0.68158 0.425449,0.94871 0.999989,0.59363 0.658542,-0.40701 0.836075,0.15186 0.480354,1.51214 -0.310345,1.18676 -0.200066,1.93266 0.245065,1.65756 0.991522,-0.6128 3.195989,5.37802 2.43316,6.6123 -0.300873,0.48682 -0.02234,0.88513 0.618965,0.88513 0.720424,0 0.888532,0.66875 0.439907,1.75 -0.399354,0.9625 -0.747499,2.25978 -0.773655,2.88284 -0.02616,0.62307 -1.38915,1.92535 -3.028875,2.89396 -2.159859,1.27586 -2.778866,1.37702 -2.246557,0.36715 0.404119,-0.76667 -0.09179,-0.40456 -1.102015,0.8047 -2.23706,2.67779 -6.721338,4.47475 -8.992138,3.60336 -0.965525,-0.37051 -1.419878,-0.23277 -1.074667,0.3258 0.328934,0.53222 0.184645,1.6212 -0.320642,2.41994 -0.762098,1.20469 -0.921315,1.15394 -0.934017,-0.29775 -0.0084,-0.9625 -0.495637,-1.75 -1.082701,-1.75 -0.587063,0 -0.822336,-0.7875 -0.522828,-1.75 0.299508,-0.9625 0.07535,-2.425 -0.498119,-3.25 -0.807315,-1.16141 -0.917265,-0.93568 -0.487087,1 0.475009,2.13741 0.347247,2.06489 -0.880897,-0.5 -0.790068,-1.65 -1.187396,-3.84385 -0.88295,-4.87523 0.33104,-1.12147 0.147674,-1.62439 -0.456186,-1.25119 -1.089282,0.67322 -3.503409,-5.08099 -2.686338,-6.40304 0.27184,-0.43985 -0.07105,-1.03488 -0.761976,-1.32231 -0.895811,-0.37265 -0.699309,-0.97097 0.684899,-2.08541 C 48.508751,104.70327 48.872809,104 48.250147,104 c -0.622662,0 -1.414765,0.45734 -1.760228,1.01631 -0.345464,0.55897 -1.142467,0.69843 -1.771118,0.3099 -0.628652,-0.38853 -2.735058,-0.64113 -4.680902,-0.56134 -2.948353,0.12089 -3.204624,-0.0173 -1.537899,-0.82902 1.607387,-0.78286 1.362005,-0.87708 -1.25,-0.47996 -1.96863,0.2993 -3.25,0.0675 -3.25,-0.58788 0,-0.59509 -0.662321,-0.82783 -1.471824,-0.5172 -2.07846,0.79758 -7.666135,-1.31857 -6.872481,-2.60273 0.388802,-0.629095 0.174568,-0.761211 -0.529124,-0.326305 -0.683905,0.422677 -2.006529,-0.250011 -3.137022,-1.595492 C 20.034972,95.5 20.034972,95.5 19.382725,97.819328 18.858886,99.68205 17.877277,97.959419 14.396656,89.069245 10.104848,78.107146 9.6691294,74.227381 12.879042,75.555983 c 0.891527,0.369008 2.403397,0.896031 3.359711,1.171161 0.956314,0.27513 1.495442,0.893921 1.198062,1.375092 -0.29738,0.48117 0.231502,0.578537 1.175292,0.216371 1.256381,-0.482119 1.496745,-0.30375 0.897429,0.665963 -0.468051,0.757322 -0.426876,1.082377 0.09616,0.759125 0.50309,-0.310927 3.385119,0.03127 6.404508,0.760446 3.019389,0.729173 4.627298,1.364039 3.573131,1.410814 -1.054166,0.04677 -1.648844,0.352867 -1.321506,0.680206 0.327339,0.327338 1.931576,0.301634 3.564973,-0.05712 3.311648,-0.72736 4.584223,-3.430522 2.521926,-5.356996 -0.741799,-0.692944 -1.341835,-1.804656 -1.333413,-2.470472 0.0098,-0.773923 0.404511,-0.669528 1.094332,0.289427 0.897394,1.247514 0.978979,1.191666 0.484687,-0.331787 C 34.26745,73.660729 34,72.621672 34,72.359196 c 0,-0.262477 -0.417602,-0.219138 -0.928004,0.09631 -1.197041,0.739812 -2.425605,-3.074335 -1.482035,-4.601064 0.423832,-0.685775 0.285042,-0.895222 -0.338041,-0.510135 -0.59941,0.370456 -1.532238,-0.70967 -2.154509,-2.494715 -1.517288,-4.352497 -1.413289,-4.729822 1.152589,-4.18175 2.193689,0.468572 2.201419,0.441202 0.30887,-1.09362 C 28.657551,58.032285 28.663495,58 30.848708,58 37.566526,58 46.688108,50.063124 63.403906,29.673056 70.245293,21.327875 78.011359,12.475 80.661831,10 83.312302,7.525 84.163483,6.9625 82.553344,8.75 80.91614,10.567545 80.19619,12 80.919898,12 c 0.73945,0 1.047382,0.642885 0.718476,1.5 -0.316583,0.825 -0.11317,1.5 0.452028,1.5 0.565197,0 0.751719,0.446436 0.414493,0.99208 -0.337227,0.545644 -0.104807,1.783144 0.516488,2.75 1.066426,1.659566 1.098069,1.657103 0.565577,-0.04402 -0.355479,-1.135626 -0.166298,-1.556112 0.511612,-1.137141 0.591616,0.365638 0.85359,1.51401 0.582166,2.551938 C 84.409314,21.150787 84.621668,22 85.152637,22 c 0.530968,0 0.712379,0.409391 0.403136,0.909758 -0.768609,1.243635 0.455163,4.201517 1.477015,3.569978 0.988188,-0.610734 2.009194,2.341805 1.632997,4.722289 -0.147937,0.936114 -1.03424,2.547632 -1.969563,3.581152 -0.935322,1.033519 -1.483932,2.09578 -1.219133,2.360579 0.264799,0.264799 -0.746719,1.828034 -2.247818,3.473855 C 81.728172,42.263433 81.175,42.685261 82,41.555007 c 1.486935,-2.037108 1.480608,-2.038601 -0.726419,-0.17136 -1.22453,1.036006 -2.002123,2.246564 -1.727985,2.69013 C 80.145251,45.044038 74.216107,52 72.789419,52 72.237551,52 72.045044,51.325 72.361626,50.5 73.06316,48.671833 72.093748,45.824027 71,46.5 69.858698,47.205363 68.950368,44.292914 69.701324,42.335955 70.111405,41.2673 69.947037,40.914699 69.241935,41.350476 67.916837,42.169432 66.57021,38.504432 67.589961,36.85444 68.033068,36.137478 67.873379,35.960222 67.173852,36.392554 66.429911,36.852335 65.818656,35.718133 65.400254,33.101588 64.761822,29.109052 64.761822,29.109052 60.226342,34.804526 57.731828,37.937037 53.41329,42.8625 50.629591,45.75 47.845892,48.6375 45.945548,51 46.406605,51 c 0.461056,0 0.228439,0.7875 -0.516927,1.75 -1.187094,1.532908 -1.088104,1.522616 0.79797,-0.08296 2.099205,-1.787015 2.181872,-1.779358 3.297621,0.305439 0.629441,1.176121 0.963257,2.675955 0.741814,3.332964 -0.221444,0.657008 0.241515,1.669339 1.028796,2.249624 0.787282,0.580285 1.501779,2.267467 1.587771,3.749294 0.08599,1.481827 0.479727,2.694548 0.874965,2.694937 0.395239,3.88e-4 0.431266,0.749526 0.08006,1.664751 C 53.832037,67.880088 54.020851,68.105148 55,67.5 c 0.962212,-0.59468 1.170561,-0.386857 0.739178,0.737309 -0.419424,1.093001 -0.09349,1.46737 1.080061,1.240556 0.924418,-0.178663 1.793261,-0.415523 1.930761,-0.526354 0.1375,-0.110831 0.5875,-0.264652 1,-0.341824 1.729904,-0.323637 3.242052,-1.81353 2.711649,-2.671741 -0.840768,-1.360391 9.328422,-11.185723 10.699904,-10.338101 0.724949,0.448044 0.873682,0.266184 0.403928,-0.493895 -0.573259,-0.927552 -1.123916,-0.905683 -2.404509,0.09549 -1.48597,1.16174 -1.51637,1.114176 -0.288527,-0.451442 0.754844,-0.9625 1.695113,-1.75 2.089485,-1.75 1.08618,0 3.144639,5.01855 2.491757,6.074936 C 75.139241,59.583721 75.344401,60 75.909598,60 c 0.565198,0 0.740283,0.74882 0.389078,1.664045 -0.400439,1.043528 -0.241361,1.418566 0.4266,1.005743 1.199708,-0.74146 2.586135,2.017321 1.718951,3.420454 C 78.134984,66.590609 78.406669,67 79.047972,67 c 0.64295,0 0.898856,0.69618 0.570471,1.551938 -0.38909,1.013954 -0.193942,1.30374 0.56295,0.835955 0.749065,-0.462948 0.954427,-0.184217 0.581088,0.788689 -0.859241,2.239146 3.826413,1.706156 5.989908,-0.681347 C 88.429218,67.644786 88.398745,67.64604 86,69.526184 83.5,71.485692 83.5,71.485692 85.974661,68.492846 87.335724,66.846781 90.524439,63.25 93.060693,60.5 95.596948,57.75 97.718616,54.477774 97.775512,53.228387 97.832407,51.979 97.503346,51.188915 97.044264,51.472643 96.014012,52.109374 94.782336,49.161205 95.555773,47.909758 95.865016,47.409391 95.593331,47 94.952028,47 94.310725,47 94.045044,46.325 94.361626,45.5 95.06316,43.671833 94.093748,40.824027 93,41.5 c -1.141302,0.705363 -2.049632,-2.207086 -1.298676,-4.164045 0.439094,-1.144261 0.260589,-1.43045 -0.571467,-0.916211 -2.11233,1.305492 -0.138362,-4.728977 2.216125,-6.774747 4.654691,-4.044374 11.467718,-6.641792 17.870778,-6.8131 4.1908,-0.112122 5.03442,-0.298734 2.53324,-0.560365 -2.0625,-0.215745 -3.75689,-0.927598 -3.76531,-1.581897 C 109.97551,19.976707 109.58093,20.101075 109,21 c -0.80966,1.252863 -0.99785,1.170484 -1.14222,-0.5 -0.0951,-1.1 -0.15196,-2.5625 -0.12643,-3.25 0.0255,-0.6875 -0.33945,-1.25 -0.81108,-1.25 -0.47162,0 -0.57015,-0.74882 -0.21895,-1.664045 0.41008,-1.068655 0.24572,-1.421256 -0.45938,-0.985479 -1.25503,0.775645 -2.69658,-2.805843 -1.74747,-4.3415274 C 104.83743,8.4540269 104.67637,8 104.13657,8 c -0.53981,0 -1.492,-1.5469416 -2.11599,-3.437648 -0.62399,-1.8907065 -1.89639,-3.63850586 -2.827554,-3.88399869 -0.931164,-0.24549284 0.422325,-0.49855122 3.007754,-0.56235196 5.96124,-0.14710583 14.23513,1.59219035 18.97221,3.98824145 2.74044,1.3861376 3.79944,1.5452761 4.17105,0.6267926 0.35855,-0.8862105 0.52018,-0.8466003 0.57701,0.1414093 0.0547,0.9503762 0.46336,1.0716761 1.32895,0.3944321 0.6875,-0.5379069 2.1747,-1.2029176 3.30489,-1.4778015 1.87306,-0.4555656 4.1496,4.7300973 25.72825,58.6055677 38.28529,95.586987 65.03078,163.624777 64.52092,164.134637 -0.91263,0.91263 -5.6639,1.50652 -6.12204,0.76523 z M 117,128.5 c 1.29175,-1.375 2.12363,-2.5 1.84863,-2.5 -0.275,0 -1.55688,1.125 -2.84863,2.5 -1.29175,1.375 -2.12363,2.5 -1.84863,2.5 0.275,0 1.55688,-1.125 2.84863,-2.5 z M 94.5,125 c 0.995486,-1.1 1.584975,-2 1.309975,-2 -0.275,0 -1.314489,0.9 -2.309975,2 -0.995486,1.1 -1.584975,2 -1.309975,2 0.275,0 1.314489,-0.9 2.309975,-2 z m 74.5,-9.55902 c 0,-0.85746 -0.45734,-1.27636 -1.01631,-0.9309 -0.55897,0.34546 -0.75742,1.04702 -0.44098,1.55902 0.85723,1.38704 1.45729,1.12841 1.45729,-0.62812 z M 121.12207,113.325 c -1.17884,-2.02721 -1.46351,-1.37835 -0.49853,1.13634 0.34294,0.8937 0.83419,1.41426 1.09166,1.15679 0.25747,-0.25747 -0.009,-1.28938 -0.59313,-2.29313 z M 83,107.5 c 1.291745,-1.375 2.123628,-2.5 1.848628,-2.5 -0.275,0 -1.556883,1.125 -2.848628,2.5 -1.291745,1.375 -2.123628,2.5 -1.848628,2.5 0.275,0 1.556883,-1.125 2.848628,-2.5 z m 82.12207,-2.175 c -1.17884,-2.02721 -1.46351,-1.37835 -0.49853,1.13634 0.34294,0.8937 0.83419,1.41426 1.09166,1.15679 0.25747,-0.25747 -0.009,-1.28938 -0.59313,-2.29313 z m -71.999997,-2 c -1.178845,-2.02721 -1.463513,-1.37835 -0.498534,1.13634 0.342946,0.8937 0.834195,1.41426 1.091663,1.15679 0.257469,-0.25747 -0.0094,-1.28938 -0.593129,-2.29313 z M 50.99772,102.75 C 50.998974,102.3375 49.875,102 48.5,102 46.388889,102 46,101.53333 46,99 c 0,-2 0.5,-3 1.5,-3 0.825,0 1.5,-0.675 1.5,-1.5 0,-0.825 0.675,-1.5 1.5,-1.5 0.825,0 1.5,-0.675 1.5,-1.5 0,-0.825 0.675,-1.5 1.5,-1.5 1,0 1.5,-1 1.5,-3 0,-2 0.5,-3 1.5,-3 0.825,0 1.5,-0.675 1.5,-1.5 0,-0.825 0.7875,-1.506891 1.75,-1.515313 1.2871,-0.01126 1.410398,-0.230795 0.46613,-0.829949 -0.706128,-0.448051 -1.01295,-1.520642 -0.681826,-2.383537 0.331124,-0.862895 0.05184,-1.908946 -0.620639,-2.324559 -0.808093,-0.499429 -0.965268,-0.339154 -0.46353,0.472674 0.555795,0.899295 0.195373,0.876248 -1.345492,-0.08604 -1.738688,-1.085829 -2.470598,-1.085829 -4.209286,0 -1.742936,1.088481 -1.985815,1.086856 -1.413223,-0.0095 0.380281,-0.728104 -0.185883,-0.246606 -1.258142,1.069995 -1.24708,1.531259 -2.415007,2.10616 -3.241286,1.595492 -0.908432,-0.561442 -1.048835,-0.405328 -0.47317,0.526118 0.594346,0.961671 0.362759,1.149543 -0.845491,0.685894 C 44.74882,79.350119 44,79.484523 44,80 c 0,0.515477 -0.74882,0.649881 -1.664045,0.298676 -1.183149,-0.454016 -1.435951,-0.269489 -0.874771,0.638519 0.576526,0.932839 0.254207,1.107249 -1.19577,0.647044 -1.787889,-0.567454 -1.972968,-0.187917 -1.863441,3.821322 0.06688,2.448242 0.509702,4.821045 0.984044,5.272895 0.480014,0.457253 0.564469,-0.287011 0.190461,-1.678456 -0.576695,-2.145517 -0.511547,-2.243249 0.459454,-0.689261 0.622287,0.995906 0.882897,2.458406 0.579134,3.25 C 40.311303,92.352332 40.528971,93 41.098772,93 c 0.595231,0 0.766736,0.957272 0.403109,2.25 -0.45019,1.600469 -0.356863,1.851007 0.323289,0.867872 0.76454,-1.105115 1.091243,-0.956591 1.630054,0.741052 0.370629,1.167748 0.393267,2.577206 0.05031,3.132127 C 43.16257,100.54597 43.358524,101 43.940983,101 44.523442,101 45,101.61042 45,102.35648 c 0,0.86399 1.088378,1.31782 2.99772,1.25 1.648745,-0.0586 2.998745,-0.44398 3,-0.85648 z M 120,97.88234 c 0,-0.420369 -0.51953,-1.085392 -1.15451,-1.477832 -0.7153,-0.442079 -0.88306,-0.274316 -0.44098,0.440984 0.93947,1.520099 -0.67218,1.486841 -2.20451,-0.04549 -0.93333,-0.933333 -1.21409,-0.877778 -1.26339,0.25 -0.0349,0.7975 -0.47054,0.436999 -0.96818,-0.801114 -0.49764,-1.238112 -0.61765,-2.999433 -0.26668,-3.914045 0.38702,-1.008567 0.2353,-1.413968 -0.38558,-1.030243 -1.31193,0.810813 -3.447,-3.800074 -2.68234,-5.792749 C 110.95291,84.680332 110.72996,84 110.13837,84 109.546,84 109.34965,83.252409 109.70132,82.335955 110.16796,81.119912 109.97915,80.894852 109,81.5 c -0.94923,0.586658 -1.17235,0.391525 -0.76528,-0.669288 0.34225,-0.891876 0.007,-1.497379 -0.83006,-1.497379 -1.09384,0 -1.40466,1.843981 -1.40466,8.333334 0,6.74074 0.28667,8.333333 1.5,8.333333 0.825,0 1.5,0.660613 1.5,1.46803 0,1.130303 1.2653,1.434739 5.5,1.323322 3.025,-0.07959 5.5,-0.488644 5.5,-0.909012 z M 92,94.622445 C 92,94.414789 91.314699,93.67614 90.477108,92.981001 89.203761,91.924217 89.05743,91.986084 89.584097,93.358556 90.121993,94.760293 92,95.742779 92,94.622445 Z M 18.122073,91.325003 c -1.178845,-2.027217 -1.463513,-1.378356 -0.498534,1.136338 0.342946,0.893703 0.834195,1.414259 1.091663,1.15679 0.257469,-0.257469 -0.0094,-1.289377 -0.593129,-2.293128 z M 69.075686,90.25 C 71.5,87.5 71.5,87.5 68.925813,89.759146 67.51001,91.001677 66.04751,91.714177 65.675813,91.34248 65.304116,90.970783 65,91.191667 65,91.833333 c 0,1.918682 1.50324,1.3347 4.075686,-1.583333 z M 85.5,83 c 0.339919,-0.55 0.155599,-1 -0.409598,-1 -0.565198,0 -0.740283,-0.74882 -0.389078,-1.664045 0.413058,-1.076413 0.247112,-1.42212 -0.469925,-0.978968 C 83.621736,79.73378 82.658948,79.2451 82.091869,78.271032 81.250229,76.825351 81.055231,77.188901 81.030409,80.25 81.005629,83.305771 81.35933,84 82.940983,84 84.008524,84 85.160081,83.55 85.5,83 Z M 12.662281,76.75 c -0.277413,-0.6875 -0.504386,-0.125 -0.504386,1.25 0,1.375 0.226973,1.9375 0.504386,1.25 0.277412,-0.6875 0.277412,-1.8125 0,-2.5 z m 98.661039,-4.868421 c 1.74718,-0.06513 3.51418,-0.06513 3.92668,0 0.4125,0.06513 0.75,-0.317456 0.75,-0.850194 0,-0.532739 0.74882,-0.681266 1.66404,-0.330061 1.21605,0.466639 1.44111,0.277825 0.83596,-0.701324 -0.61018,-0.987285 -0.37652,-1.166595 0.88789,-0.681393 1.03026,0.395346 1.46894,0.258756 1.09777,-0.341806 -0.34002,-0.55016 0.73284,-1.270502 2.38414,-1.60076 C 125.69565,66.81087 128.18663,64 125.86163,64 c -0.59159,0 -0.80762,-0.698372 -0.48007,-1.551938 0.32754,-0.853566 0.19784,-1.30615 -0.28823,-1.005743 -1.03379,0.63892 -2.3427,-2.229812 -1.58026,-3.463463 0.28575,-0.462363 0.0819,-1.111165 -0.45308,-1.441783 -0.53496,-0.330618 -0.69082,-1.335532 -0.34638,-2.233143 0.39973,-1.041664 0.22911,-1.38656 -0.47167,-0.953454 -1.25503,0.775645 -2.69658,-2.805843 -1.74747,-4.341527 C 120.83743,48.454027 120.68361,48 120.15264,48 c -0.53097,0 -0.73005,-0.9 -0.44239,-2 0.57517,-2.199441 1.80291,-2.596741 2.83983,-0.918973 0.37324,0.603917 1.76777,0.80503 3.1597,0.455677 2.81626,-0.706836 9.29022,1.104899 9.29022,2.599865 0,0.539806 0.40939,0.728447 0.90976,0.419204 1.119,-0.691581 4.23119,0.406862 3.68046,1.299012 -0.21907,0.354868 0.6693,0.709226 1.97414,0.787461 2.35256,0.141054 2.35939,0.111736 0.81556,-3.5 -0.85628,-2.003235 -2.9602,-7.187825 -4.67538,-11.521311 -1.71517,-4.333486 -3.28012,-7.394194 -3.47766,-6.801575 -0.25574,0.76723 -1.05096,0.762288 -2.76166,-0.01716 -1.32138,-0.602059 -2.16824,-1.473696 -1.88193,-1.936971 0.28632,-0.463274 -0.17779,-0.574327 -1.03135,-0.246783 C 127.69837,26.945987 127,26.757961 127,26.200608 c 0,-0.557353 -0.97037,-0.759612 -2.15637,-0.449465 -1.32146,0.345569 -1.91395,0.17166 -1.53026,-0.449163 0.3856,-0.623925 -0.41861,-0.846422 -2.09363,-0.579234 -2.2274,0.355298 -2.4482,0.221559 -1.21974,-0.738789 1.2757,-0.997277 1.22609,-1.08375 -0.33179,-0.578289 C 118.66073,23.73255 116.16899,24 114.13102,24 c -3.00173,0 -3.73433,0.383917 -3.85769,2.021613 -0.0838,1.111887 0.21825,1.792607 0.67113,1.51271 1.10233,-0.681275 3.42555,5.057976 2.59284,6.40532 C 113.17687,34.522839 113.3444,35 113.9096,35 c 0.5652,0 0.74028,0.74882 0.38908,1.664045 -0.41008,1.068655 -0.24572,1.421256 0.45938,0.985479 1.21538,-0.751146 2.71043,2.783419 1.80026,4.256117 -0.31393,0.507946 -0.0383,1.101031 0.6125,1.317966 0.65847,0.219488 0.84567,0.9407 0.42207,1.626087 -0.44349,0.717588 -1.61311,0.961276 -2.80228,0.583849 -1.33257,-0.422942 -1.80984,-0.273678 -1.37494,0.430006 0.66639,1.078241 -3.7925,2.774807 -6.09026,2.317289 -0.64603,-0.128633 -1.50306,0.297585 -1.90451,0.94715 -0.48807,0.789715 -0.26456,0.935416 0.67459,0.439744 0.77248,-0.407707 0.27951,0.183787 -1.09549,1.314431 -1.375,1.130644 -2.9633,1.957193 -3.52955,1.836776 -0.56626,-0.120416 -1.05272,0.0061 -1.08102,0.281061 -0.0283,0.275 -0.622407,1.566805 -1.320219,2.870677 -0.697811,1.303873 -0.821005,2.093957 -0.273764,1.755744 1.147957,-0.709477 2.488053,2.105849 1.648783,3.463821 C 100.13498,61.590609 100.38885,62 101.00837,62 c 0.68898,0 0.88063,0.873756 0.49351,2.25 -0.4323,1.536875 -0.33929,1.827245 0.29345,0.916154 0.74547,-1.073403 1.05178,-1.006968 1.56875,0.340242 0.35333,0.920749 0.38939,2.083479 0.0802,2.583846 C 103.13498,68.590609 103.30393,69 103.81966,69 c 0.51574,0 1.54622,1.4625 2.28996,3.25 0.97524,2.343878 1.44771,2.762088 1.69464,1.5 0.23368,-1.194393 1.35095,-1.787597 3.51906,-1.868421 z M 91.5,64 c 0.995486,-1.1 1.584975,-2 1.309975,-2 -0.275,0 -1.314489,0.9 -2.309975,2 -0.995486,1.1 -1.584975,2 -1.309975,2 0.275,0 1.314489,-0.9 2.309975,-2 z m -24,-3 c 0.995486,-1.1 1.584975,-2 1.309975,-2 -0.275,0 -1.314489,0.9 -2.309975,2 -0.995486,1.1 -1.584975,2 -1.309975,2 0.275,0 1.314489,-0.9 2.309975,-2 z M 41.127555,56.25 C 42.397071,54.631245 42.350006,54.610023 40.5,55.967032 39.4,56.7739 38.3125,57.5614 38.083333,57.717032 37.854167,57.872665 38.136567,58 38.710889,58 c 0.574322,0 1.661822,-0.7875 2.416666,-1.75 z M 74.5,20 c 0.995486,-1.1 1.584975,-2 1.309975,-2 -0.275,0 -1.314489,0.9 -2.309975,2 -0.995486,1.1 -1.584975,2 -1.309975,2 0.275,0 1.314489,-0.9 2.309975,-2 z M 126.47106,8.1377223 c -0.84591,-0.8459066 -3.52762,-1.0382599 -3.01981,-0.2166042 0.25342,0.4100517 1.15557,0.7455486 2.00476,0.7455486 0.8492,0 1.30597,-0.238025 1.01505,-0.5289444 z M 106,1.3833686 C 106,1.1725159 105.1,1 104,1 c -1.1,0 -2,0.4078712 -2,0.9063804 0,0.4985092 0.9,0.6710251 2,0.3833686 1.1,-0.2876564 2,-0.6955276 2,-0.9063804 z M 67,170.10823 c 3.025,-0.33452 5.3875,-1.05823 5.25,-1.60823 -0.1375,-0.55 -0.8125,-1.00767 -1.5,-1.01705 -0.6875,-0.009 -1.216673,-0.9995 -1.175941,-2.20028 0.04073,-1.20077 -0.252932,-1.98114 -0.652589,-1.73414 -1.036549,0.64063 -2.948612,-5.31422 -2.272284,-7.07671 C 66.959821,155.66232 66.729956,155 66.138374,155 c -0.592377,0 -0.788727,-0.74759 -0.43705,-1.66404 0.387368,-1.00947 0.23586,-1.41517 -0.385157,-1.03136 -0.563041,0.34798 -1.545553,-0.51263 -2.18336,-1.91246 -0.976921,-2.14411 -1.615245,-2.44509 -4.051027,-1.9101 -1.700525,0.3735 -3.171182,0.18232 -3.570737,-0.46417 -0.373646,-0.60457 -1.57466,-0.81507 -2.668919,-0.46776 -2.427203,0.77036 -8.055279,-1.3962 -7.204185,-2.7733 0.366152,-0.59245 -0.162834,-0.74499 -1.315166,-0.37925 -1.100878,0.3494 -2.763012,-0.0654 -3.87523,-0.96703 -1.071148,-0.86836 -1.315514,-1.25095 -0.543035,-0.85018 0.889885,0.46168 1.157477,0.32896 0.73031,-0.36221 -1.083125,-1.75253 -4.799582,-1.06682 -4.045981,0.74652 0.350939,0.84444 0.83579,2.43534 1.077447,3.53534 0.241657,1.1 -2.267225,-4.72967 -5.575294,-12.95483 -3.308069,-8.22515 -5.806842,-15.16265 -5.55283,-15.41666 0.254012,-0.25402 0.46184,0.049 0.46184,0.67344 0,0.6244 0.680103,0.8743 1.511341,0.55532 1.138872,-0.43702 1.339178,-0.12123 0.812769,1.28139 -0.638316,1.70079 -0.536482,1.73196 1.180618,0.36134 1.507166,-1.20305 1.709726,-1.2189 1.023186,-0.0801 -0.641934,1.06484 -0.439859,1.26025 0.808041,0.78138 C 33.25118,121.35012 34,121.5252 34,122.0904 c 0,0.5652 0.409391,0.77462 0.909758,0.46537 1.284566,-0.7939 4.191512,0.47135 3.532561,1.53756 -0.300407,0.48607 0.152177,0.61577 1.005743,0.28823 C 40.301628,124.05401 41,124.27004 41,124.86163 c 0,0.59158 0.680527,0.81446 1.512282,0.49528 0.831755,-0.31917 3.555595,-0.2739 6.052976,0.10061 3.45548,0.51818 4.801979,1.25437 5.633946,3.08034 0.601289,1.31968 1.553922,2.11472 2.116963,1.76674 0.621017,-0.38381 0.772525,0.0219 0.385157,1.03136 C 56.350119,132.25118 56.454625,133 56.93356,133 c 1.124518,0 3.212841,5.9541 2.495447,7.11487 C 59.128134,140.60169 59.309663,141 59.832403,141 c 0.522741,0 1.705861,1.88799 2.629156,4.19553 1.156828,2.8912 1.928986,3.79059 2.483734,2.89299 0.515586,-0.83424 1.61399,-1.04579 3.055091,-0.5884 1.357671,0.43091 2.014539,0.33304 1.656202,-0.24676 -0.32663,-0.5285 0.545685,-1.48012 1.938477,-2.11472 1.788908,-0.81508 2.33143,-0.82872 1.847966,-0.0465 -0.487526,0.78883 -0.07439,0.7809 1.436294,-0.0276 C 76.045695,144.44036 77,143.69391 77,143.4058 c 0,-0.28811 -0.5625,-0.23323 -1.25,0.12196 -0.6875,0.35519 -0.125,-0.27606 1.25,-1.40276 1.439329,-1.17942 3.463248,-1.87917 4.770374,-1.64931 1.27414,0.22407 2.011715,-0.0193 1.680901,-0.55453 -0.324209,-0.52458 -0.966411,-0.72082 -1.427115,-0.43609 -0.460703,0.28473 -0.594348,-0.41267 -0.296988,-1.54978 0.29736,-1.1371 0.868977,-1.70022 1.270261,-1.25138 1.432764,1.60259 2.907117,7.40125 2.290431,9.00831 -0.37864,0.98672 -0.221511,1.38481 0.395969,1.00318 1.369888,-0.84664 3.431247,3.84113 2.619391,5.9568 -0.413914,1.07864 -0.251818,1.43406 0.454841,0.99732 1.325098,-0.81895 2.671725,2.84605 1.651974,4.49604 -0.44748,0.72404 -0.283016,0.89397 0.435453,0.44993 C 91.480471,158.20305 92,158.38508 92,159 c 0,0.61492 0.5625,0.80715 1.25,0.42718 0.6875,-0.37997 -0.325,0.7097 -2.25,2.42149 -1.925,1.71179 -6.029972,4.40646 -9.122159,5.98814 -4.689903,2.39894 -6.845539,2.87612 -13,2.87773 -7.107867,0.002 -7.176582,-0.0203 -1.877841,-0.60631 z M 78,168 c 0.825,-0.53316 1.05,-0.96937 0.5,-0.96937 -0.55,0 -1.675,0.43621 -2.5,0.96937 -0.825,0.53316 -1.05,0.96937 -0.5,0.96937 0.55,0 1.675,-0.43621 2.5,-0.96937 z m -25,0 c -0.825,-0.53316 -1.05,-0.96937 -0.5,-0.96937 0.55,0 1.675,0.43621 2.5,0.96937 0.825,0.53316 1.05,0.96937 0.5,0.96937 -0.55,0 -1.675,-0.43621 -2.5,-0.96937 z m -5.25,-2.57197 C 44.011559,163.39989 44.239117,162.55517 48,164.5 c 1.65,0.85325 3,1.7648 3,2.02568 0,0.6435 -0.107447,0.60721 -3.25,-1.09765 z m -5.126461,-3.96669 c -0.964979,-2.51469 -0.680311,-3.16355 0.498534,-1.13634 0.58369,1.00375 0.850598,2.03566 0.593129,2.29313 -0.257468,0.25747 -0.748717,-0.26309 -1.091663,-1.15679 z M 95,157.49948 C 95,156.79943 109.12233,140 109.71082,140 c 0.26148,0 -1.46059,2.3625 -3.82683,5.25 C 99.704185,152.79118 95,158.08555 95,157.49948 Z m -55.376461,-4.03814 c -0.964979,-2.51469 -0.680311,-3.16355 0.498534,-1.13634 0.58369,1.00375 0.850598,2.03566 0.593129,2.29313 -0.257468,0.25747 -0.748717,-0.26309 -1.091663,-1.15679 z M 88.5,132 c 0.995486,-1.1 2.034975,-2 2.309975,-2 0.275,0 -0.314489,0.9 -1.309975,2 -0.995486,1.1 -2.034975,2 -2.309975,2 -0.275,0 0.314489,-0.9 1.309975,-2 z M 128,119.0512 c 3.40758,-2.89285 11.53455,-7.05651 13.71676,-7.02746 0.98078,0.013 -0.84339,1.10372 -4.05372,2.4237 -3.21033,1.31999 -6.58533,3.04086 -7.5,3.82416 -0.91467,0.78331 -2.33804,1.75669 -3.16304,2.16307 -0.825,0.40639 -0.375,-0.21618 1,-1.38347 z M 20.623539,105.46134 c -0.964979,-2.51469 -0.680311,-3.16355 0.498534,-1.13634 0.58369,1.00375 0.850598,2.03566 0.593129,2.29313 -0.257468,0.25747 -0.748717,-0.26309 -1.091663,-1.15679 z M 8.6235386,74.461341 C 7.6585601,71.946647 7.9432282,71.297786 9.1220725,73.325003 9.7057628,74.328754 9.9726713,75.360662 9.7152024,75.618131 9.4577335,75.8756 8.9664848,75.355044 8.6235386,74.461341 Z m -4,-10 C 3.6585601,61.946647 3.9432282,61.297786 5.1220725,63.325003 5.7057628,64.328754 5.9726713,65.360662 5.7152024,65.618131 5.4577335,65.8756 4.9664848,65.355044 4.6235386,64.461341 Z M 2.1111111,57.888889 c -0.616071,-1.767262 -0.945129,-3.388204 -0.7312401,-3.602093 0.2138888,-0.213889 0.8929469,1.057053 1.5090179,2.824315 0.616071,1.767262 0.945129,3.388204 0.7312401,3.602093 -0.2138888,0.213889 -0.8929469,-1.057053 -1.5090179,-2.824315 z m 21.1579209,1.41812 c 0.972967,-0.253543 2.322967,-0.236869 3,0.03705 C 26.946064,59.617986 26.15,59.825431 24.5,59.805051 22.85,59.784672 22.296064,59.560553 23.269032,59.307009 Z M 11.25,56.968838 c -3.4625647,-1.391781 -2.6648132,-2.004743 1,-0.768362 1.7875,0.603041 3.4375,1.254632 3.666667,1.447981 C 16.730072,58.33473 13.465272,57.859268 11.25,56.968838 Z M 4.4411296,53.444834 C 2.6108243,51.978456 2.6427317,51.957643 5,53.080288 8.0610321,54.5381 8.6283393,55 7.3577963,55 6.8212509,55 5.5087509,54.300175 4.4411296,53.444834 Z M 87.404988,35.141654 C 89.443074,32.850366 90,32.553726 90,33.759453 c 0,0.417699 -1.0125,1.381444 -2.25,2.141654 -2.24201,1.377292 -2.243235,1.374595 -0.345012,-0.759453 z M 86,5.5703675 C 86,5.2953675 86.9,4.5887021 88,4 89.1,3.4112979 90,3.1546325 90,3.4296325 90,3.7046325 89.1,4.4112979 88,5 86.9,5.5887021 86,5.8453675 86,5.5703675 Z M 92,2 C 92.825,1.4668441 94.4,1.0553632 95.5,1.085598 97.5,1.14057 97.5,1.14057 95.5,2 94.4,2.4726862 92.825,2.8841671 92,2.914402 90.666667,2.9632664 90.666667,2.8616662 92,2 Z"
       style="fill:#ed811a" />
    <path
       id="path3726"
       d="m 214.08089,225.75 c -3.69317,-9.55555 -38.62217,-97.39434 -40.40449,-101.60843 -2.4213,-5.7249 -2.87443,-6.01851 -15.1764,-9.83364 -8.00762,-2.48336 -9.55924,-3.38859 -4.62973,-2.70104 2.40364,0.33525 6.80397,1.68585 9.77851,3.00133 5.17739,2.28968 9.30914,3.29252 6.70117,1.62647 -0.63253,-0.40408 -1.30753,-1.63469 -1.5,-2.73469 -0.19247,-1.1 -0.57495,-2.225 -0.84995,-2.5 -0.72953,-0.72953 -3.17212,-7.2875 -3.25904,-8.75 C 164.7001,101.5625 164.29167,101 163.83333,101 163.375,101 163,100.47293 163,99.828741 c 0,-0.644193 -0.7875,-2.098938 -1.75,-3.232767 -1.4563,-1.715532 -1.47265,-1.847635 -0.0974,-0.787143 1.47806,1.139783 -3.57858,-12.50802 -8.72082,-23.537396 -0.82789,-1.77571 -2.63822,-6.23857 -4.02296,-9.917465 -1.38473,-3.678896 -3.03369,-7.626042 -3.66435,-8.771436 C 144.11379,52.437141 143.46846,50.825 143.31038,50 142.67981,46.709131 126.14134,7.4940648 125.34894,7.4108958 124.88202,7.3618885 122.475,6.3845969 120,5.2391366 c -6.19277,-2.8660903 -16.90359,-5.00841613 -17.80971,-3.56221 -0.47367,0.7560094 -1.1421,0.6152551 -2.13006,-0.4485383 -1.294166,-1.39349518 -0.718467,-1.48981026 5.69241,-0.95234558 3.92762,0.32927754 9.85392,1.69729538 13.18977,3.04470538 3.75733,1.5176504 6.0634,2.0162434 6.0729,1.3130102 0.008,-0.6235671 0.43969,-0.4625199 0.95836,0.3578825 0.75105,1.1879567 1.19583,1.2388544 2.18469,0.25 3.63966,-3.6396626 3.78725,-3.3217281 36.21299,78.0083592 57.23432,143.55485 56.67197,142.08366 54.85233,143.5 -2.3953,1.86441 -4.16902,1.51951 -5.14279,-1 z M 78.971561,167.92773 c 2.459358,-1.11558 5.834358,-3.05009 7.5,-4.29889 4.79706,-3.59656 6.2488,-4.22375 4.094767,-1.76904 -2.498644,2.84743 -11.759936,8.14663 -14.188055,8.11824 -1.03305,-0.0121 0.133929,-0.93472 2.593288,-2.05031 z M 95,156.68709 c 0,-0.1721 1.4625,-1.6346 3.25,-3.25 C 101.5,150.5 101.5,150.5 98.562909,153.75 95.825128,156.77946 95,157.45965 95,156.68709 Z M 62.638374,149.5 C 62.321791,148.675 62.498646,148 63.031385,148 63.564123,148 64,148.675 64,149.5 c 0,0.825 -0.176855,1.5 -0.393011,1.5 -0.216156,0 -0.652033,-0.675 -0.968615,-1.5 z M 31.773676,132.85862 C 26.699781,119.86306 26.523398,119.32316 27.73618,120.5 c 1.421955,1.37982 8.434615,19.48762 8.02404,20.71934 -0.182947,0.54884 -1.976892,-3.21348 -3.986544,-8.36072 z M 82,137.44098 c 0,-0.85746 0.45,-1.2809 1,-0.94098 0.55,0.33992 1,1.04148 1,1.55902 C 84,138.57656 83.55,139 83,139 c -0.55,0 -1,-0.70156 -1,-1.55902 z m 28.01253,0.67207 C 109.99744,136.44274 122.73818,122 124.22674,122 c 0.57582,0 -0.92714,2.15055 -3.3399,4.779 -2.41276,2.62845 -5.8437,6.56595 -7.62431,8.75 -1.78061,2.18405 -3.24311,3.34687 -3.25,2.58405 z M 45.75,125.33772 c 0.6875,-0.27741 1.8125,-0.27741 2.5,0 0.6875,0.27741 0.125,0.50439 -1.25,0.50439 -1.375,0 -1.9375,-0.22698 -1.25,-0.50439 z M 138,113.04569 c 0.825,-0.55829 2.3625,-1.02196 3.41667,-1.03038 2.55844,-0.0204 1.76026,0.55192 -1.91667,1.37439 -2.19092,0.49007 -2.59546,0.3973 -1.5,-0.34401 z M 110.88968,103.75 C 112.08433,102.20734 111.99343,102 110.12244,102 108.90249,102 108,101.36218 108,100.5 c 0,-0.825 -0.675,-1.5 -1.5,-1.5 -0.825,0 -1.5,-0.675 -1.5,-1.5 0,-0.825 -0.6366,-1.5 -1.41467,-1.5 -1.0329,0 -1.50517,-1.686678 -1.75,-6.25 C 101.37804,81.226867 101.85345,78 103.56642,78 104.35489,78 105,77.325 105,76.5 c 0,-0.825 0.675,-1.5 1.5,-1.5 0.825,0 1.5,-0.625767 1.5,-1.390594 0,-0.82502 1.32182,-1.543639 3.25,-1.76689 4.50874,-0.522037 6.75,0.05266 6.75,1.730808 C 118,74.357996 118.45,75 119,75 c 0.55,0 1,-0.675 1,-1.5 0,-0.833333 0.88889,-1.5 2,-1.5 1.77778,0 2,0.666667 2,6 0,5.333333 -0.22222,6 -2,6 -1.55556,0 -2,-0.666667 -2,-3 0,-2 -0.5,-3 -1.5,-3 -0.825,0 -1.5,-0.675 -1.5,-1.5 0,-1.076369 -1.09907,-1.5 -3.89159,-1.5 -3.33375,0 -3.98301,0.364229 -4.52932,2.540898 -0.35075,1.397494 -1.07453,2.270937 -1.60841,1.940983 C 106.37198,79.111865 106,82.16195 106,87.440983 106,94.382331 106.2835,96 107.5,96 c 0.825,0 1.5,0.675 1.5,1.5 0,1.151515 1.27778,1.5 5.5,1.5 3.20434,0 5.5,-0.442027 5.5,-1.059017 0,-0.582459 -0.45,-0.780902 -1,-0.440983 -2.26871,1.402141 -0.79361,-0.405211 1.62312,-1.988717 1.44272,-0.945305 2.31616,-1.222059 1.94099,-0.61501 C 122.18893,95.503323 122.35852,96 122.94098,96 123.52344,96 124,96.675 124,97.5 c 0,0.825 -0.675,1.5 -1.5,1.5 -0.825,0 -1.5,0.675 -1.5,1.5 0,1.46287 -1.61423,1.92809 -5.33575,1.53777 -1.00966,-0.1059 -2.80191,0.62978 -3.98277,1.63484 -1.89132,1.60976 -1.98562,1.61898 -0.7918,0.0774 z M 48.75,102.18358 C 46.446856,101.91857 46,101.39047 46,98.933578 46,96.99262 46.507547,96 47.5,96 48.325,96 49,95.325 49,94.5 49,93.675 49.675,93 50.5,93 51.325,93 52,92.325 52,91.5 52,90.675 52.675,90 53.5,90 c 1,0 1.5,-1 1.5,-3 0,-2 0.5,-3 1.5,-3 0.825,0 1.5,-0.675 1.5,-1.5 0,-0.825 0.675,-1.5 1.5,-1.5 0.825,0 1.5,-0.675 1.5,-1.5 0,-0.825 0.675,-1.5 1.5,-1.5 0.825,0 1.5,-0.643593 1.5,-1.430208 0,-1.099903 -1.5926,-1.435241 -6.89592,-1.452002 -6.013421,-0.019 -6.961384,0.228539 -7.40746,1.934334 C 48.908338,80.066519 46,78.367824 46,74.893011 46,72 46,72 57,72 c 11,0 11,0 11,3 0,2 -0.5,3 -1.5,3 -0.825,0 -1.5,0.675 -1.5,1.5 0,0.825 -0.675,1.5 -1.5,1.5 -0.825362,0 -1.5,0.885402 -1.5,1.968615 0,1.339038 -0.479711,1.784533 -1.5,1.393011 C 59.365014,83.926092 59,84.542086 59,86.893011 59,88.988112 58.511478,90 57.5,90 56.675,90 56,90.675 56,91.5 56,92.325 55.325,93 54.5,93 53.675,93 53,93.675 53,94.5 53,95.325 52.325,96 51.5,96 50.675,96 50,96.675 50,97.5 c 0,1.192817 1.457403,1.5 7.116631,1.5 6.411269,0 7.069065,-0.181895 6.636718,-1.835193 -0.386216,-1.476891 -0.01851,-1.74699 1.883369,-1.383423 C 67.124663,96.065823 68,96.930756 68,98.116577 c 0,1.035883 0.1125,2.220923 0.25,2.633423 0.272672,0.81802 -15.055923,1.94493 -19.5,1.43358 z m 31,0.0165 C 75.531381,101.98006 74,101.51399 74,100.4501 74,99.652543 74.675,99 75.5,99 76.75,99 77,97 77,87 77,77 76.75,75 75.5,75 74.675,75 74,74.325 74,73.5 74,72.452381 75.055556,72 77.5,72 c 1.925,0 3.655837,0.1125 3.846305,0.25 0.190468,0.1375 1.176849,-0.425 2.191959,-1.25 1.059435,-0.861025 1.52575,-0.967521 1.094677,-0.25 C 84.065148,71.695093 85.359916,72 89.940983,72 96,72 96,72 96,75 c 0,2.333333 -0.444444,3 -2,3 -1.111111,0 -2,-0.666667 -2,-1.5 0,-1.157895 -1.3,-1.5 -5.7,-1.5 -4.433333,0 -5.433333,0.266667 -4.5,1.2 0.66,0.66 1.193109,1.6725 1.184687,2.25 C 82.976265,79.0275 82.533156,78.825 82,78 81.278945,76.884248 81.026703,77.460619 81.015313,80.25 81.001685,83.587417 81.275056,84 83.5,84 85.055556,84 86,83.433333 86,82.5 86,81.666667 86.888889,81 88,81 c 1.703704,0 2,0.666667 2,4.5 0,3.833333 -0.296296,4.5 -2,4.5 -1.111111,0 -2,-0.666667 -2,-1.5 0,-0.933333 -0.944444,-1.5 -2.5,-1.5 -2.388889,0 -2.5,0.266667 -2.5,6 0,6 0,6 3,6 1.945392,0 3,0.506557 3,1.44098 0,1.95583 -0.615426,2.10516 -7.25,1.75912 z M 16.846833,94.798725 c -0.891376,-2.364299 -2.783314,-7.354592 -4.204307,-11.08954 -1.420993,-3.734949 -2.179707,-6.541181 -1.68603,-6.236072 0.493676,0.305109 1.441856,2.235976 2.107067,4.290815 1.563668,4.830178 5.709708,13.184959 7.800437,15.718839 1.517916,1.839654 1.516707,1.890775 -0.01675,0.708262 -1.13357,-0.874141 -1.766937,-0.931955 -2.016242,-0.184042 -0.199918,0.599754 -1.092795,-0.843964 -1.984171,-3.208262 z m 72.10733,-0.884371 c -0.613912,-1.147106 -0.895832,-2.306018 -0.626489,-2.575361 0.269342,-0.269343 0.786126,0.444198 1.148408,1.585646 0.758949,2.391238 1.55952,2.578651 3.52569,0.825361 1.192527,-1.06341 1.204104,-0.988774 0.07756,0.5 -1.734539,2.292256 -2.763563,2.208528 -4.125164,-0.335646 z m -24.33572,-0.466292 c -0.366141,-0.954149 -0.183457,-1.29726 0.474272,-0.890761 0.588393,0.363647 2.495739,-0.624538 4.238545,-2.195966 3.009291,-2.713374 2.995331,-2.668551 -0.277427,0.890761 C 67.158441,93.313443 65.519086,95 65.410822,95 65.302558,95 64.945987,94.301628 64.618443,93.448062 Z M 56.398692,69.75 c -0.395639,-0.6875 -0.34308,-0.908384 0.116796,-0.490854 0.459876,0.417531 1.994522,-0.257469 3.410325,-1.5 C 62.5,65.5 62.5,65.5 60.075686,68.25 c -2.796764,3.172486 -2.730159,3.145315 -3.676994,1.5 z m 73.870338,-2.442991 c 0.97297,-0.253543 2.32297,-0.236869 3,0.03705 0.67703,0.273923 -0.11903,0.481368 -1.76903,0.460988 -1.65,-0.02038 -2.20394,-0.244498 -1.23097,-0.498042 z M 89.5,64 c 0.995486,-1.1 2.034975,-2 2.309975,-2 0.275,0 -0.314489,0.9 -1.309975,2 -0.995486,1.1 -2.034975,2 -2.309975,2 -0.275,0 0.314489,-0.9 1.309975,-2 z M 23.269032,59.307009 c 0.972967,-0.253543 2.322967,-0.236869 3,0.03705 C 26.946064,59.617986 26.15,59.825431 24.5,59.805051 22.85,59.784672 22.296064,59.560553 23.269032,59.307009 Z m 7.734716,-0.109029 c 0.0021,-0.383889 2.118032,-1.567681 4.702157,-2.630648 2.752426,-1.132197 8.031656,-5.049451 12.746251,-9.457875 5.817689,-5.439881 6.533194,-5.943486 2.582004,-1.817332 C 48.027948,48.431456 45.996941,51 46.520812,51 c 0.52387,0 -1.291502,1.500224 -4.03416,3.333832 -5.100087,3.409669 -11.489628,6.116274 -11.482904,4.864148 z M 71.22619,54.421277 c 0.949405,-0.991226 1.94144,-1.58698 2.204522,-1.323898 0.263082,0.263082 -0.513704,1.074085 -1.72619,1.80223 -2.106309,1.264918 -2.127619,1.243608 -0.478332,-0.478332 z M 65,28.938075 C 65,27.641637 77.353676,12.737433 81.114695,9.4963556 82.544379,8.2643186 82.181223,9.0314277 80.166153,11.5 78.370315,13.7 74.22327,18.79198 70.950497,22.815512 67.677724,26.839044 65,29.594197 65,28.938075 Z m 45.76166,-5.645336 c 1.24391,-0.239193 3.04391,-0.230112 4,0.02018 0.95609,0.250292 -0.0617,0.445996 -2.26166,0.434897 -2.2,-0.0111 -2.98225,-0.215885 -1.73834,-0.455078 z"
       style="fill:#1f170f" />
  </g>
</svg>
